<svg display="none" xmlns="http://www.w3.org/2000/svg">


	<symbol id="android" viewBox="0 0 576 512">
		<path d="M420.55,301.93a24,24,0,1,1,24-24,24,24,0,0,1-24,24m-265.1,0a24,24,0,1,1,24-24,24,24,0,0,1-24,24m273.7-144.48,47.94-83a10,10,0,1,0-17.27-10h0l-48.54,84.07a301.25,301.25,0,0,0-246.56,0L116.18,64.45a10,10,0,1,0-17.27,10h0l47.94,83C64.53,202.22,8.24,285.55,0,384H576c-8.24-98.45-64.54-181.78-146.85-226.55"/>
  </symbol>

	<symbol id="tooltip" viewBox="0 0 3 13">
		<path d="M1.54885 1.8695C0.955247 1.8695 0.658447 1.5895 0.658447 1.0295C0.658447 0.480698 0.955247 0.206299 1.54885 0.206299C2.14245 0.206299 2.43925 0.480698 2.43925 1.0295C2.43925 1.5895 2.14245 1.8695 1.54885 1.8695ZM1.54885 12.0839C1.10085 12.0839 0.876847 11.8375 0.876847 11.3447V4.4735C0.876847 3.9919 1.10085 3.7511 1.54885 3.7511C2.00805 3.7511 2.23765 3.9919 2.23765 4.4735V11.3447C2.23765 11.8375 2.00805 12.0839 1.54885 12.0839Z" fill="#141024"/>
  </symbol>

	<symbol id="call" viewBox="0 0 24 24">
		<path d="M18.1668 14.3797C17.4951 14.2352 16.9637 14.5471 16.4932 14.8194C16.0114 15.1001 15.0951 15.8434 14.57 15.6531C11.8811 14.546 9.35213 12.1925 8.25739 9.49286C8.06444 8.95647 8.80424 8.0344 9.08283 7.54686C9.35316 7.07492 9.65858 6.53852 9.51928 5.86178C9.3934 5.25366 7.76522 3.18188 7.18947 2.61533C6.80977 2.2411 6.42078 2.03527 6.02147 2.00201C4.5202 1.93756 2.84352 3.94073 2.54945 4.41996C1.81274 5.44181 1.81687 6.80152 2.56183 8.45021C4.35717 12.8786 11.1475 19.5618 15.5925 21.4246C16.4128 21.8082 17.1629 22.0005 17.8366 22.0005C18.496 22.0005 19.0831 21.8165 19.5876 21.4516C19.9684 21.2323 22.0536 19.4724 21.9989 17.9307C21.9659 17.5378 21.7606 17.1448 21.3912 16.7644C20.8289 16.1833 18.7704 14.5065 18.1668 14.3797Z" fill="white"/>
  </symbol>

</svg>


<!--для страницы html-->

	<svg class="header__svg3">
		<use xlink:href="img/svg/sprite.svg#"></use>
	</svg>


