<svg display="none" xmlns="http://www.w3.org/2000/svg">


	<symbol id="android" viewBox="0 0 576 512">
		<path d="M420.55,301.93a24,24,0,1,1,24-24,24,24,0,0,1-24,24m-265.1,0a24,24,0,1,1,24-24,24,24,0,0,1-24,24m273.7-144.48,47.94-83a10,10,0,1,0-17.27-10h0l-48.54,84.07a301.25,301.25,0,0,0-246.56,0L116.18,64.45a10,10,0,1,0-17.27,10h0l47.94,83C64.53,202.22,8.24,285.55,0,384H576c-8.24-98.45-64.54-181.78-146.85-226.55"/>
  </symbol>

	<symbol id="tooltip" viewBox="0 0 3 13">
		<path d="M1.54885 1.8695C0.955247 1.8695 0.658447 1.5895 0.658447 1.0295C0.658447 0.480698 0.955247 0.206299 1.54885 0.206299C2.14245 0.206299 2.43925 0.480698 2.43925 1.0295C2.43925 1.5895 2.14245 1.8695 1.54885 1.8695ZM1.54885 12.0839C1.10085 12.0839 0.876847 11.8375 0.876847 11.3447V4.4735C0.876847 3.9919 1.10085 3.7511 1.54885 3.7511C2.00805 3.7511 2.23765 3.9919 2.23765 4.4735V11.3447C2.23765 11.8375 2.00805 12.0839 1.54885 12.0839Z" fill="#141024"/>
  </symbol>

</svg>


<!--для страницы html-->

	<svg class="header__svg3">
		<use xlink:href="img/svg/sprite.svg#"></use>
	</svg>


